<svg width="16" height="16" viewBox="0 0 16 16" fill="none" xmlns="http://www.w3.org/2000/svg">
<path fill-rule="evenodd" clip-rule="evenodd" d="M15.2131 3.89947C15.9942 3.11842 15.9942 1.85209 15.2131 1.07105C14.4321 0.289998 13.1658 0.289998 12.3847 1.07105L8.14208 5.31367L3.89947 1.07105C3.11842 0.290003 1.85209 0.290002 1.07104 1.07105C0.28999 1.8521 0.28999 3.11843 1.07104 3.89948L5.31366 8.1421L1.071 12.3848C0.28995 13.1658 0.289951 14.4321 1.071 15.2132C1.85205 15.9942 3.11838 15.9942 3.89943 15.2132L8.14208 10.9705L12.3847 15.2132C13.1658 15.9942 14.4321 15.9942 15.2132 15.2132C15.9942 14.4321 15.9942 13.1658 15.2132 12.3848L10.9705 8.1421L15.2131 3.89947Z" fill="#6F6F6F"/>
</svg>
