<?xml version="1.0" encoding="utf-8"?>
<!-- Generator: Adobe Illustrator 22.1.0, SVG Export Plug-In . SVG Version: 6.00 Build 0)  -->
<svg version="1.1" xmlns="http://www.w3.org/2000/svg" xmlns:xlink="http://www.w3.org/1999/xlink" x="0px" y="0px"
	 viewBox="0 0 96.4 85" style="enable-background:new 0 0 96.4 85;" xml:space="preserve">
<style type="text/css">
	.st0{fill:none;stroke:#000000;stroke-width:7.22;}
	.st1{fill:#FFFFFF;}
</style>
<g id="Layer_1">
	<g>
		<polygon points="68.1,26.5 80.1,14.4 80.2,14.3 74.6,8.7 74.5,8.6 62.5,20.6 62.3,20.8 67.9,26.4 		"/>
		<rect x="18" y="13.5" transform="matrix(0.7071 -0.7071 0.7071 0.7071 -4.6095 23.9395)" width="17.2" height="8.1"/>
		<polygon points="67.9,64.3 79.9,52.2 80.1,52.1 74.5,46.5 74.3,46.4 62.3,58.4 62.1,58.6 67.8,64.2 		"/>
		<rect x="18.2" y="51.3" transform="matrix(0.7071 -0.7071 0.7071 0.7071 -31.285 35.1438)" width="17.2" height="8.1"/>
		<path d="M96.4,6.4v-8.5H0v8.5h5.6V36H0v8.9h5.6v29.6H0v8.5h96.4v-8.5h-5.6V44.8h5.6V36h-5.6V6.4H96.4z M43.9,44.8
			c-0.9,7.6-4.4,14-9.9,19.5c-5.5,5.5-12.7,9-20.3,9.9V44.8H43.9z M13.7,35.7V6.4h30.2C43,14,39.5,20.3,34,25.8
			C28.5,31.3,21.3,34.8,13.7,35.7z M34.6,36c5.8-4.2,10.5-9.9,13.6-16.4C51.3,26,56,31.7,61.8,36H34.6z M48.2,58
			c3.1,6.5,7.8,12.2,13.6,16.4H34.6C40.4,70.2,45.1,64.5,48.2,58z M82.7,44.8v29.3c-7.6-0.9-14.9-4.4-20.3-9.9
			c-5.5-5.5-9-11.8-9.9-19.5H82.7z M82.7,6.4v29.3c-7.6-0.9-14.9-4.4-20.3-9.9c-5.5-5.5-9-11.8-9.9-19.5H82.7z"/>
	</g>
</g>
<g id="Layer_2">
</g>
</svg>
