<svg width="430" height="81" viewBox="0 0 430 81" fill="none" xmlns="http://www.w3.org/2000/svg">
<g clip-path="url(#clip0)">
<path d="M64.5 27.1L76 15.7L76.1 15.6L70.7 10.3L70.6 10.1L59.2 21.6L59.1 21.7L64.4 27L64.5 27.1Z" fill="#fff"/>
<path d="M28.2173 10.2013L16.6915 21.7271L22.1362 27.1717L33.6619 15.646L28.2173 10.2013Z" fill="#fff"/>
<path d="M64.3 63L75.8 51.5L75.9 51.4L70.6 46.1L70.5 46L59 57.4L58.9 57.5L64.2 62.8L64.3 63Z" fill="#fff"/>
<path d="M28.3868 45.9947L16.8611 57.5204L22.3058 62.9651L33.8315 51.4393L28.3868 45.9947Z" fill="#fff"/>
<path d="M91.4 8.1V0H0V8.1H5.3V36.1H0V44.5H5.3V72.5H0V80.6H91.4V72.5H86.1V44.5H91.4V36.1H86.1V8.1H91.4V8.1ZM41.6 44.5C40.7 51.8 37.4 57.7 32.2 62.9C27 68.1 20.2 71.4 12.9 72.3V44.5H41.6ZM13 35.9V8.1H41.7C40.8 15.4 37.5 21.3 32.3 26.5C27.1 31.7 20.2 35 13 35.9ZM32.8 36.1C38.3 32.1 42.8 26.7 45.7 20.5C48.6 26.7 53.1 32 58.6 36.1H32.8ZM45.7 57C48.6 63.2 53.1 68.5 58.6 72.6H32.8C38.3 68.5 42.8 63.2 45.7 57ZM78.4 44.5V72.3C71.2 71.4 64.3 68.1 59.1 62.9C53.9 57.7 50.6 51.7 49.7 44.5H78.4ZM78.4 8.1V35.9C71.2 35 64.3 31.7 59.1 26.5C53.9 21.3 50.6 15.3 49.7 8.1H78.4V8.1Z" fill="#fff"/>
<path d="M116.6 23.8999H109V58.8999H116.6V23.8999Z" fill="#fff"/>
<path d="M342.8 23.8999H335.2V58.8999H342.8V23.8999Z" fill="#fff"/>
<path d="M201 23.8999H166V30.9999H179.7V58.8999H187.3V30.9999H201V23.8999Z" fill="#fff"/>
<path d="M159.7 58.8999V23.8999H152.6V52.9999L137.1 23.8999H124.7V58.8999H131.8V29.8999L147.3 58.8999H159.7Z" fill="#fff"/>
<path d="M242.4 30.9999V23.8999H207.3V58.8999H242.4V51.8999H215V44.9999H233.9V37.8999H215V30.9999H242.4Z" fill="#fff"/>
<path d="M429.1 30.9999V23.8999H394.1V58.8999H429.1V51.8999H401.7V44.9999H420.6V37.8999H401.7V30.9999H429.1Z" fill="#fff"/>
<path d="M320.1 37.8999H301.2V30.9999H328.6V23.8999H293.6V58.8999H301.2V44.9999H320.1V37.8999Z" fill="#fff"/>
<path d="M270.4 47.6999H270.7L276.7 59H285.2L278.1 45.7999L278.6 45.5999C279.6 45.0999 280.4 44.5999 281 44.0999C283.8 41.8999 285.2 38.6999 285.2 34.9999C285.2 31.1999 283.7 27.9999 280.9 25.6999C272.6 19.0999 255.1 22.7999 253.1 23.2999L250.3 23.8999V59.0999H257.9V47.4L258.5 47.4999C262.8 47.8999 266.8 47.9999 270.4 47.6999ZM258 40.0999V29.4999L258.4 29.3999C264.9 28.3999 273.1 28.3999 276.5 31.0999C277.6 31.9999 278.1 33.0999 278.1 34.6999C278.1 36.2999 277.6 37.2999 276.6 38.1999C274.5 39.8999 270.4 40.5999 266 40.5999C263.5 40.5999 260.9 40.3999 258.5 40.0999H258Z" fill="#fff"/>
<path d="M370.9 47.6999H371.2L377.2 59H385.7L378.6 45.7999L379.1 45.5999C380.1 45.0999 380.9 44.5999 381.5 44.0999C384.3 41.8999 385.7 38.6999 385.7 34.9999C385.7 31.1999 384.2 27.9999 381.4 25.6999C373.1 19.0999 355.6 22.7999 353.6 23.2999L350.8 23.8999V59.0999H358.4V47.4L359 47.4999C363.3 47.8999 367.2 47.9999 370.9 47.6999ZM358.5 40.0999V29.5999L358.9 29.4999C363 28.8999 372.9 27.8999 377 31.1999C378.1 32.0999 378.6 33.1999 378.6 34.7999C378.6 36.3999 378.1 37.3999 377.1 38.2999C375 39.9999 370.9 40.5999 366.5 40.5999C364 40.5999 361.4 40.3999 359 40.0999H358.5Z" fill="#fff"/>
</g>
<defs>
<clipPath id="clip0">
<rect width="429.1" height="80.6" fill="#fff"/>
</clipPath>
</defs>
</svg>
